<svg width="63" height="16" viewBox="0 0 63 16" fill="none" xmlns="http://www.w3.org/2000/svg">
<path fill-rule="evenodd" clip-rule="evenodd" d="M0 0H63V16H0V0Z" fill="white" fill-opacity="0.01"/>
<path d="M6.811 14.857C10.5726 14.857 13.622 11.787 13.622 8.00001C13.622 4.21299 10.5726 1.14301 6.811 1.14301C3.04939 1.14301 0 4.21299 0 8.00001C0 11.787 3.04939 14.857 6.811 14.857Z" fill="#00AED6"/>
<path fill-rule="evenodd" clip-rule="evenodd" d="M10.778 7.787C10.7555 7.36988 10.5694 6.97846 10.2601 6.69765C9.95087 6.41684 9.54336 6.26929 9.126 6.287H4.824C4.78657 6.28687 4.74954 6.27937 4.71501 6.26493C4.68048 6.25048 4.64914 6.22938 4.62277 6.20282C4.5964 6.17626 4.57551 6.14477 4.56131 6.11014C4.54711 6.07552 4.53987 6.03843 4.54 6.001C4.54 5.843 4.667 5.715 4.824 5.715H9.183C9.17213 5.42692 9.07014 5.14971 8.8917 4.92329C8.71325 4.69687 8.46756 4.5329 8.19 4.455C6.91996 4.22923 5.62005 4.22923 4.35 4.455C3.99621 4.54361 3.67721 4.73647 3.43435 5.00857C3.19149 5.28067 3.03599 5.61946 2.988 5.981C2.78652 7.32684 2.78652 8.69517 2.988 10.041C3.06186 10.4225 3.24977 10.7727 3.52688 11.0452C3.80399 11.3176 4.15726 11.4996 4.54 11.567C6.11653 11.7642 7.71148 11.7642 9.288 11.567C9.63085 11.4955 9.94252 11.318 10.1789 11.0595C10.4152 10.8011 10.5643 10.4749 10.605 10.127C10.745 9.355 10.804 8.571 10.778 7.787ZM9.365 8.747V9.001C9.36513 9.03843 9.35789 9.07552 9.34369 9.11015C9.32949 9.14477 9.30861 9.17627 9.28223 9.20282C9.25586 9.22938 9.22452 9.25048 9.18999 9.26493C9.15546 9.27937 9.11843 9.28687 9.081 9.287C9.04357 9.28687 9.00654 9.27937 8.97201 9.26493C8.93748 9.25048 8.90614 9.22938 8.87977 9.20282C8.8534 9.17627 8.83251 9.14477 8.81831 9.11015C8.80411 9.07552 8.79687 9.03843 8.797 9.001V8.747C8.73232 8.68945 8.68666 8.61359 8.66608 8.52948C8.6455 8.44538 8.65098 8.357 8.68179 8.27608C8.71259 8.19516 8.76727 8.12552 8.83857 8.07639C8.90987 8.02726 8.99442 8.00097 9.081 8.001C9.16759 8.00097 9.25214 8.02726 9.32343 8.07639C9.39473 8.12552 9.44941 8.19516 9.48022 8.27608C9.51102 8.357 9.5165 8.44538 9.49592 8.52948C9.47535 8.61359 9.42969 8.68945 9.365 8.747V8.747Z" fill="white"/>
<path d="M18.937 11.414C19.2199 11.8217 19.6021 12.1506 20.0473 12.3696C20.4926 12.5887 20.9864 12.6907 21.482 12.666C22.669 12.666 23.541 11.903 23.541 10.866V10.319H23.512C22.862 10.959 21.975 11.293 21.068 11.241C20.3626 11.2604 19.6649 11.0908 19.0472 10.7497C18.4294 10.4086 17.9142 9.90837 17.555 9.30101C17.1933 8.6919 16.9994 7.99787 16.9929 7.2895C16.9864 6.58113 17.1676 5.88367 17.518 5.26802C17.8665 4.65446 18.3728 4.14528 18.9843 3.79327C19.5958 3.44125 20.2904 3.25921 20.996 3.26601C21.4539 3.23668 21.913 3.30061 22.3455 3.45394C22.778 3.60727 23.1748 3.8468 23.512 4.15801H23.541V3.41002H25.571V10.838C25.571 12.997 23.871 14.494 21.482 14.494C20.7099 14.5357 19.9389 14.3929 19.2329 14.0775C18.5269 13.762 17.9061 13.283 17.422 12.68L18.937 11.414V11.414ZM23.456 6.79201C23.456 5.92901 22.483 5.13701 21.397 5.13701C20.024 5.13701 19.109 5.97201 19.109 7.22401C19.069 7.81801 19.289 8.39902 19.714 8.81202C19.9231 9.01617 20.1746 9.17188 20.4506 9.26813C20.7265 9.36438 21.0203 9.39882 21.311 9.36902C22.498 9.36902 23.456 8.62101 23.456 7.68501V6.79201V6.79201ZM30.916 3.19401C33.39 3.19401 35.192 4.96401 35.192 7.22401C35.192 9.48401 33.39 11.255 30.916 11.255C30.1823 11.3025 29.4497 11.147 28.7984 10.8057C28.1472 10.4644 27.6025 9.95037 27.224 9.32001C26.8432 8.68739 26.6419 7.96293 26.6419 7.22451C26.6419 6.4861 26.8432 5.76164 27.224 5.12902C27.6025 4.49866 28.1472 3.98466 28.7984 3.64335C29.4497 3.30203 30.1823 3.14658 30.916 3.19401V3.19401ZM30.916 5.06402C30.3459 5.06982 29.8015 5.30159 29.4021 5.70843C29.0028 6.11527 28.7812 6.66395 28.786 7.23401C28.7865 7.80407 29.0132 8.35062 29.4163 8.75371C29.8194 9.1568 30.3659 9.38349 30.936 9.38401C31.5061 9.38084 32.0516 9.15161 32.4528 8.74665C32.854 8.34168 33.0781 7.79407 33.076 7.22401C33.0892 6.93591 33.0423 6.6482 32.9381 6.37925C32.834 6.11031 32.6749 5.86603 32.471 5.66202C32.2682 5.45897 32.0249 5.30088 31.757 5.19802C31.4891 5.09517 31.2026 5.04985 30.916 5.06501V5.06402ZM36.29 3.41002H38.32V4.08601H38.35C38.6776 3.78228 39.0625 3.54695 39.4821 3.39378C39.9018 3.24062 40.3478 3.17271 40.794 3.19401C42.974 3.23401 44.722 5.02201 44.726 7.21701C44.73 9.41301 42.988 11.207 40.808 11.255C39.948 11.275 39.108 10.99 38.435 10.449H38.406V14.278H36.29V3.41002ZM40.466 5.08001C39.35 5.08001 38.406 5.87102 38.406 6.73502V7.69901C38.406 8.62101 39.322 9.38302 40.479 9.38302C41.0477 9.37931 41.5917 9.1499 41.9913 8.74523C42.3909 8.34055 42.6135 7.79374 42.61 7.22501C42.6101 6.94333 42.5548 6.66438 42.4471 6.40408C42.3394 6.14379 42.1815 5.90725 41.9825 5.70798C41.7834 5.5087 41.547 5.35059 41.2868 5.24268C41.0266 5.13476 40.7477 5.07915 40.466 5.07901V5.08001ZM48.803 6.49001C50.19 6.30301 50.605 6.10201 50.605 5.71301C50.605 5.20901 50.075 4.90701 49.261 4.90701C48.8349 4.87185 48.4103 4.99035 48.064 5.24109C47.7177 5.49183 47.4726 5.85823 47.373 6.27402L45.371 5.85701C45.657 4.30201 47.245 3.19401 49.203 3.19401C51.419 3.19401 52.793 4.33101 52.793 6.18701V11.039H50.89V10.204H50.86C50.5431 10.5644 50.1473 10.8467 49.7035 11.029C49.2596 11.2113 48.7797 11.2886 48.301 11.255C46.628 11.255 45.471 10.334 45.471 8.98001C45.471 7.55501 46.414 6.82101 48.802 6.49001H48.803ZM50.776 7.29601H50.748C50.561 7.57001 50.161 7.72801 49.132 7.91601C47.888 8.14601 47.445 8.39002 47.445 8.83602C47.445 9.29702 47.817 9.49901 48.617 9.49901C49.833 9.49901 50.777 8.93701 50.777 8.20301V7.29601H50.776ZM56.82 10.622L53.317 3.41002H55.648L57.95 8.39002H57.978L60.252 3.41002H62.597L57.35 14.278H55.019L56.82 10.622Z" fill="white"/>
</svg>
