<?xml version="1.0" standalone="no"?>
<!DOCTYPE svg PUBLIC "-//W3C//DTD SVG 20010904//EN"
 "http://www.w3.org/TR/2001/REC-SVG-20010904/DTD/svg10.dtd">
<svg version="1.0" xmlns="http://www.w3.org/2000/svg"
 width="960.000000pt" height="222.000000pt" viewBox="0 0 960.000000 222.000000"
 preserveAspectRatio="xMidYMid meet">

<g transform="translate(0.000000,222.000000) scale(0.100000,-0.100000)"
fill="#dd0000" stroke="none">
<path d="M2205 2102 c-4 -9 -11 -73 -15 -142 -4 -69 -13 -143 -19 -165 -16
-60 -14 -205 2 -205 10 0 16 -25 20 -96 4 -54 9 -100 12 -103 13 -12 25 27 25
84 0 75 8 105 25 99 26 -10 49 -96 34 -126 -6 -10 -3 -30 6 -53 10 -23 13 -49
9 -71 -4 -21 -2 -40 6 -49 9 -11 8 -16 -8 -26 -11 -7 -17 -19 -15 -29 3 -12
-7 -24 -30 -39 -19 -11 -37 -21 -40 -21 -3 0 -9 20 -13 45 -7 52 -19 50 -35
-5 -7 -22 -15 -40 -19 -40 -12 0 -10 223 3 257 9 26 7 43 -6 86 -12 38 -16 84
-15 158 2 129 -4 149 -42 149 -26 0 -29 4 -40 53 -21 94 -23 95 -34 22 -9 -60
-14 -70 -32 -73 -14 -2 -29 6 -42 22 -11 15 -25 26 -31 26 -6 0 -11 20 -12 48
-1 26 -4 58 -8 72 -7 23 -8 23 -14 5 -3 -11 -11 -63 -17 -115 -14 -112 -11
-186 8 -182 6 1 12 -3 12 -9 0 -6 -7 -9 -15 -5 -16 6 -16 9 -16 -269 -1 -66
-5 -127 -10 -137 -7 -12 -6 -25 3 -40 7 -13 11 -27 9 -33 -2 -5 -3 -28 -3 -49
1 -22 -3 -47 -9 -57 -6 -11 -5 -20 1 -24 5 -3 10 -17 10 -31 0 -13 9 -32 20
-41 25 -22 25 -29 2 -35 -27 -7 -31 -102 -5 -117 17 -9 17 -10 -1 -24 -17 -12
-19 -26 -17 -128 3 -154 3 -160 -9 -175 -8 -8 -8 -14 -1 -19 6 -3 10 -37 10
-75 -1 -38 2 -73 6 -79 8 -14 62 -14 70 -1 11 17 23 11 29 -15 7 -28 27 -32
46 -10 7 9 29 15 55 15 41 0 63 13 69 42 2 7 6 21 11 31 4 10 2 24 -6 33 -11
14 -10 18 5 30 17 12 17 18 7 60 -9 35 -9 49 0 60 7 9 9 32 5 67 -10 81 -6
191 6 199 9 5 8 11 -1 22 -18 21 -5 166 15 166 25 0 38 -43 36 -122 -1 -43 2
-79 8 -83 5 -3 10 -19 10 -35 0 -16 9 -68 20 -115 11 -47 20 -101 20 -120 0
-27 6 -37 30 -52 33 -19 38 -34 16 -52 -18 -15 -19 -84 -2 -107 7 -9 30 -19
51 -23 35 -6 40 -10 48 -44 10 -41 24 -49 29 -15 2 13 9 22 17 20 7 -2 21 4
31 13 9 8 37 19 61 23 36 6 46 13 53 35 7 20 7 34 -2 48 -8 12 -9 26 -3 37 13
26 7 60 -14 76 -14 10 -18 25 -18 65 1 35 -3 51 -12 51 -20 0 -36 25 -24 37 8
8 7 18 -2 34 -18 33 -20 51 -7 67 9 10 9 22 0 45 -12 37 -15 80 -13 189 1 63
4 78 19 82 10 3 27 32 40 68 13 35 27 70 31 78 9 19 7 142 -3 159 -5 7 -5 32
-1 57 4 28 2 44 -4 44 -6 0 -11 7 -11 15 0 8 4 15 9 15 13 0 1 43 -16 57 -8 6
-12 16 -9 22 4 5 2 12 -3 15 -5 3 -12 22 -15 41 -4 19 -11 35 -15 35 -5 0 -19
16 -31 36 -15 26 -24 34 -32 26 -7 -7 -26 -3 -62 14 -29 13 -75 27 -102 30
-27 4 -52 12 -56 18 -4 6 -8 73 -8 148 0 128 -8 172 -25 130z m-315 -238 c0
-14 -4 -23 -9 -19 -11 6 -10 45 1 45 4 0 8 -12 8 -26z m310 -795 c0 -10 -4
-19 -10 -19 -5 0 -10 12 -10 26 0 14 4 23 10 19 6 -3 10 -15 10 -26z"/>
<path d="M3075 2102 c-4 -9 -9 -66 -12 -127 -2 -60 -11 -137 -19 -171 -19 -80
-19 -214 0 -214 9 0 15 -26 20 -97 4 -53 9 -99 12 -102 12 -12 24 28 24 84 0
75 8 105 25 99 30 -12 50 -101 31 -133 -3 -5 1 -25 9 -45 10 -24 13 -50 9 -72
-4 -21 -2 -40 5 -48 9 -11 8 -17 -6 -28 -10 -7 -18 -21 -18 -31 0 -10 -15 -27
-32 -38 l-33 -21 -10 27 c-5 14 -10 35 -10 46 0 31 -18 13 -31 -31 -7 -22 -15
-40 -19 -40 -12 0 -10 222 2 256 9 25 8 45 -5 90 -11 39 -16 93 -15 159 2 124
-4 145 -42 145 -26 0 -29 4 -40 53 -21 94 -23 95 -34 22 -9 -60 -14 -70 -32
-73 -14 -2 -29 6 -42 22 -11 15 -25 26 -31 26 -6 0 -11 20 -12 48 -1 26 -4 58
-8 72 -7 23 -8 23 -14 5 -10 -34 -28 -210 -26 -262 4 -138 -4 -449 -13 -460
-7 -9 -6 -20 4 -35 10 -15 12 -32 8 -49 -4 -15 -4 -33 0 -40 5 -7 2 -25 -6
-40 -9 -18 -10 -30 -4 -34 6 -3 10 -17 10 -31 0 -13 9 -32 20 -41 25 -22 25
-29 2 -35 -27 -7 -31 -102 -5 -117 17 -9 17 -10 0 -23 -16 -12 -19 -28 -18
-123 0 -61 2 -122 4 -137 3 -16 -2 -33 -10 -39 -9 -8 -10 -16 -4 -23 6 -7 11
-45 13 -86 3 -74 3 -75 31 -78 17 -2 36 3 47 13 16 15 18 14 23 -15 7 -32 27
-39 47 -15 7 9 29 15 54 15 48 0 68 11 71 37 1 10 6 26 10 36 4 10 2 24 -6 33
-11 14 -10 18 5 30 17 12 17 18 7 60 -9 35 -9 49 0 60 7 9 9 32 5 67 -10 81
-6 191 6 199 9 5 8 11 -1 22 -18 21 -5 166 15 166 25 0 38 -43 36 -118 -1 -39
2 -80 7 -90 12 -22 43 -182 48 -249 4 -46 9 -55 34 -70 32 -19 36 -34 15 -52
-21 -18 -18 -89 5 -112 11 -11 33 -19 49 -19 20 0 32 -6 36 -18 3 -9 10 -28
16 -42 l11 -25 6 25 c4 14 13 25 21 25 8 0 26 7 40 14 14 8 41 17 60 20 42 7
63 48 42 82 -8 12 -9 26 -3 37 13 26 7 60 -14 76 -14 10 -18 25 -18 65 1 35
-3 51 -12 51 -20 0 -36 25 -24 37 8 8 7 18 -2 34 -18 33 -20 51 -7 67 9 10 9
22 0 45 -12 35 -14 72 -13 189 1 64 4 78 19 82 10 3 27 32 40 68 13 35 27 70
31 78 9 19 7 142 -3 159 -5 7 -5 32 -1 57 4 28 2 44 -4 44 -6 0 -11 7 -11 15
0 8 4 15 9 15 13 0 1 43 -16 57 -8 6 -12 16 -9 22 4 5 2 12 -3 15 -5 3 -12 22
-15 41 -4 19 -11 35 -15 35 -5 0 -19 16 -30 36 -16 27 -25 33 -34 25 -10 -7
-19 -7 -33 3 -25 18 -120 46 -155 46 -35 0 -39 15 -39 172 0 119 -9 161 -25
120z m-315 -239 c0 -19 -3 -24 -10 -17 -6 6 -8 18 -4 27 9 24 14 21 14 -10z
m-10 -183 c0 -5 -5 -10 -11 -10 -5 0 -7 5 -4 10 3 6 8 10 11 10 2 0 4 -4 4
-10z m320 -616 c0 -14 -4 -22 -10 -19 -5 3 -10 17 -10 31 0 14 4 22 10 19 6
-3 10 -17 10 -31z"/>
<path d="M4816 2097 c-4 -12 -10 -71 -13 -132 -3 -60 -12 -135 -19 -165 -19
-73 -19 -210 0 -210 9 0 15 -26 20 -97 4 -53 9 -99 12 -102 11 -12 22 25 28
102 4 45 9 83 11 85 21 21 64 -93 47 -124 -7 -12 -5 -28 5 -53 10 -22 13 -49
9 -74 -4 -23 -2 -45 4 -52 8 -10 6 -17 -7 -27 -10 -7 -18 -21 -18 -31 0 -10
-15 -27 -32 -38 l-33 -21 -10 27 c-5 14 -10 35 -10 46 0 30 -15 15 -30 -30 -7
-23 -16 -41 -20 -41 -13 0 -9 234 5 259 11 21 10 31 -3 65 -10 28 -16 80 -17
161 -2 142 -7 165 -40 165 -29 0 -41 19 -50 83 -10 68 -21 66 -29 -4 -3 -33
-8 -65 -12 -70 -10 -17 -42 -9 -61 14 -24 31 -53 42 -53 20 0 -12 -3 -14 -10
-7 -12 12 -2 47 11 38 11 -6 11 73 0 101 -7 18 -9 17 -14 -10 -13 -59 -28
-208 -26 -254 4 -125 -4 -447 -11 -462 -6 -10 -4 -23 6 -37 10 -14 11 -27 5
-44 -5 -15 -5 -31 0 -41 7 -11 5 -24 -6 -41 -11 -16 -13 -26 -6 -31 6 -3 11
-17 11 -31 0 -13 9 -32 20 -41 23 -20 26 -33 6 -33 -16 0 -26 -30 -26 -77 0
-23 6 -36 22 -44 l22 -12 -22 -8 c-12 -5 -22 -12 -22 -16 -3 -45 0 -215 4
-240 3 -20 -1 -36 -10 -44 -9 -8 -11 -16 -5 -23 6 -7 11 -45 13 -86 l3 -75 33
-3 c24 -2 38 2 48 15 13 17 13 17 14 -3 0 -12 7 -27 15 -34 13 -10 19 -10 33
4 11 9 36 16 58 16 46 0 66 11 69 37 1 10 6 26 10 36 4 10 2 24 -5 32 -11 13
-9 19 9 36 23 21 20 42 -4 32 -8 -3 -15 0 -15 6 0 6 5 11 11 11 7 0 9 11 6 30
-4 16 -2 32 4 36 7 4 9 27 5 63 -9 88 -6 195 6 203 9 5 8 10 -1 21 -16 20 -4
167 14 167 27 0 39 -33 40 -113 1 -45 12 -129 25 -187 12 -58 25 -129 27 -157
4 -47 9 -55 40 -74 l34 -21 -19 -22 c-15 -15 -19 -33 -17 -65 3 -50 23 -71 67
-71 19 0 31 -6 34 -18 3 -9 10 -28 16 -42 l11 -25 9 28 c5 15 14 25 18 22 5
-3 24 4 42 15 18 11 47 20 65 20 29 0 33 4 39 35 4 22 2 41 -6 49 -7 10 -8 21
-2 33 14 26 8 64 -11 75 -13 7 -17 23 -17 62 0 46 -3 54 -21 59 -16 4 -20 11
-16 26 3 11 -1 37 -8 58 -8 23 -10 42 -4 48 12 12 12 52 -1 60 -6 4 -10 58
-10 130 0 109 2 124 18 129 14 5 64 101 68 131 0 5 2 12 4 15 8 16 7 160 -2
160 -7 0 -8 18 -4 50 4 32 3 50 -4 50 -5 0 -10 7 -10 15 0 8 5 15 11 15 13 0
2 39 -19 63 -8 9 -12 17 -7 17 4 0 3 6 -2 13 -6 6 -13 25 -17 41 -4 16 -18 42
-31 57 -13 16 -25 34 -28 41 -4 10 -7 10 -15 -1 -8 -11 -13 -11 -33 2 -30 19
-124 47 -160 47 -35 0 -39 15 -39 172 0 120 -10 165 -24 115z m-321 -417 c3
-5 -1 -10 -10 -10 -9 0 -13 5 -10 10 3 6 8 10 10 10 2 0 7 -4 10 -10z m315
-611 c0 -17 -4 -28 -10 -24 -5 3 -10 17 -10 31 0 13 5 24 10 24 6 0 10 -14 10
-31z"/>
<path d="M8222 2097 c-7 -16 -16 -86 -22 -155 -5 -70 -14 -149 -19 -177 -5
-27 -10 -78 -10 -112 -1 -50 2 -63 14 -63 11 0 15 -11 15 -37 0 -62 21 -166
32 -155 5 5 12 46 15 91 3 45 10 84 14 87 4 2 15 -7 24 -20 21 -32 31 -101 16
-110 -8 -5 -6 -16 5 -38 11 -21 14 -45 11 -71 -3 -23 0 -48 6 -59 10 -15 9
-20 -3 -28 -8 -5 -15 -17 -15 -27 0 -9 -15 -28 -34 -40 -40 -27 -51 -19 -51
35 0 45 -14 40 -38 -15 l-20 -48 -2 65 c0 36 -4 85 -7 109 -3 29 0 55 11 80
15 33 15 40 1 80 -10 28 -15 82 -16 155 -1 140 -6 160 -42 164 -31 4 -35 11
-52 91 -13 61 -18 55 -30 -41 -5 -42 -9 -48 -30 -48 -15 0 -31 10 -41 25 -16
25 -44 34 -44 15 0 -5 -4 -10 -10 -10 -5 0 -10 12 -10 26 0 14 4 23 10 19 6
-4 10 15 10 49 0 30 -4 58 -10 61 -5 3 -10 3 -10 -2 0 -4 -5 -37 -11 -73 -6
-36 -12 -183 -14 -328 -2 -144 -7 -267 -10 -272 -3 -5 -1 -11 4 -15 7 -4 6
-15 -1 -30 -8 -17 -8 -32 -1 -47 5 -13 8 -48 6 -78 -7 -99 -5 -123 16 -151 25
-33 26 -39 7 -39 -9 0 -16 -18 -20 -51 -6 -46 -5 -53 15 -67 l22 -15 -21 -8
c-19 -7 -20 -15 -20 -93 1 -47 -1 -88 -4 -92 -3 -3 -1 -21 5 -40 8 -26 8 -44
-1 -66 -6 -17 -8 -36 -4 -42 4 -6 7 -42 7 -81 l0 -70 35 -3 c24 -3 38 2 47 14
10 14 13 14 13 3 0 -8 7 -25 16 -37 l16 -23 15 20 c10 16 25 21 57 21 49 0 82
20 73 43 -3 9 -1 19 4 23 6 3 8 17 4 31 -4 17 0 32 10 44 17 18 12 44 -7 33
-7 -4 -7 2 -2 17 5 13 9 89 10 169 2 216 8 337 17 346 4 4 15 0 25 -10 14 -13
16 -32 14 -93 -1 -42 2 -81 7 -87 9 -11 32 -124 32 -161 0 -10 5 -25 11 -32 5
-7 10 -37 9 -67 0 -52 1 -55 34 -75 40 -23 42 -30 16 -53 -16 -13 -19 -25 -14
-55 7 -47 33 -76 69 -77 21 -1 30 -8 38 -33 15 -44 24 -50 32 -19 3 14 11 26
18 25 6 -1 28 5 48 14 21 10 48 17 62 17 34 0 51 61 25 87 -8 8 -6 18 6 37 12
18 13 26 5 26 -7 0 -10 7 -6 15 3 8 -2 19 -12 24 -12 7 -17 24 -18 61 -1 49
-8 61 -39 74 -6 2 -6 11 2 24 10 16 9 23 -2 32 -18 15 -19 52 -3 68 10 10 8
20 -6 46 -25 47 -21 251 6 270 20 15 70 121 61 130 -3 3 -1 12 6 20 12 14 14
142 3 161 -12 19 -12 48 -2 60 8 9 6 17 -5 28 -17 18 -20 37 -5 37 16 0 11 26
-11 54 -11 14 -15 26 -9 26 7 0 5 6 -4 16 -9 8 -16 22 -16 31 0 18 -60 113
-72 113 -4 0 -8 -4 -8 -9 0 -6 -25 1 -55 14 -30 14 -80 28 -110 31 -40 5 -55
11 -56 23 -1 9 -4 79 -8 156 -6 122 -8 136 -19 112z m-322 -417 c0 -5 -4 -10
-10 -10 -5 0 -10 5 -10 10 0 6 5 10 10 10 6 0 10 -4 10 -10z m315 -608 c5 -26
-13 -40 -21 -18 -7 17 3 52 12 44 2 -3 6 -15 9 -26z"/>
<path d="M6537 2040 c-3 -8 -8 -73 -12 -143 -3 -70 -9 -135 -12 -143 -3 -8
-18 -14 -38 -14 -56 0 -88 56 -94 168 -1 6 -5 12 -11 12 -13 0 -13 -67 0 -72
14 -4 14 -689 1 -743 -14 -53 -14 -142 0 -151 7 -4 9 -29 4 -75 -4 -37 -4 -73
0 -79 13 -21 8 -382 -5 -390 -9 -5 -9 -9 -1 -14 14 -9 15 -53 1 -61 -13 -8 17
-55 35 -55 7 0 16 8 19 17 15 37 26 -13 26 -114 0 -62 4 -103 10 -103 6 0 10
30 10 71 0 67 1 71 21 66 15 -4 23 1 30 20 14 36 33 23 43 -30 14 -72 46 -58
46 19 0 38 5 41 31 18 27 -24 40 -9 33 39 -4 23 -11 47 -16 54 -6 8 -2 19 11
32 23 23 26 37 11 46 -5 3 -10 29 -10 56 0 28 -5 59 -10 70 -9 15 -7 19 5 19
12 0 15 5 9 23 -13 38 -11 87 3 87 18 0 16 21 -3 49 -11 16 -13 26 -6 33 7 7
7 18 0 34 -12 26 -4 59 13 48 8 -5 9 8 5 42 -3 27 -7 71 -9 97 -1 29 -8 52
-17 57 -12 8 -12 10 3 16 13 5 18 16 16 38 -1 17 2 39 6 49 4 10 2 23 -5 32
-6 8 -9 23 -5 35 4 12 1 28 -6 36 -16 19 -15 122 0 137 16 16 14 38 -8 78
l-20 37 24 22 c30 28 35 19 42 -87 8 -127 19 -131 26 -8 6 85 11 113 28 136
25 36 39 29 39 -17 0 -52 21 -178 31 -188 5 -6 9 12 9 45 0 59 13 93 24 64 3
-9 6 -29 6 -43 0 -31 15 -59 23 -45 3 5 9 88 12 184 7 191 -3 330 -22 337 -9
2 -13 -9 -13 -37 0 -68 -17 -55 -24 19 -12 119 -36 100 -36 -28 0 -97 -7 -110
-43 -82 -23 18 -27 29 -27 73 0 124 -32 129 -42 7 -8 -99 -18 -113 -53 -80
-24 22 -64 133 -93 255 -5 24 -11 34 -15 25z"/>
<path d="M873 2023 c-7 -2 -13 -21 -13 -41 -1 -61 -43 -152 -70 -152 -4 0 -10
28 -14 62 -6 61 -26 106 -26 59 0 -27 -14 -54 -53 -103 -43 -54 -67 -47 -67
17 0 24 -16 42 -27 31 -4 -3 -8 -55 -9 -114 -3 -148 -1 -137 -19 -122 -13 11
-15 6 -15 -37 0 -27 3 -53 7 -57 4 -4 8 -78 10 -164 l2 -157 -89 0 -88 -1 0
81 c0 44 0 94 0 110 -1 17 0 57 2 90 2 46 -1 66 -15 87 -24 33 -24 38 0 38 27
0 38 88 16 130 -9 17 -14 34 -11 38 3 5 -12 9 -32 10 -20 1 -54 5 -75 8 -28 4
-43 2 -57 -11 -12 -11 -26 -15 -37 -10 -10 4 -30 9 -44 11 l-27 3 -7 -147 c-3
-81 -6 -171 -5 -201 0 -29 -4 -59 -10 -67 -8 -9 -8 -18 -1 -33 12 -21 17 -299
7 -341 -3 -14 -2 -32 3 -40 8 -12 13 -12 30 4 22 20 21 22 25 -26 1 -7 -7 -13
-16 -13 -9 0 -20 -4 -25 -8 -4 -5 -8 -146 -8 -313 0 -267 2 -303 15 -297 8 3
32 8 52 11 34 4 38 2 38 -19 1 -13 7 -37 14 -54 l13 -30 13 45 13 45 13 -30
c7 -16 13 -38 14 -48 1 -40 18 -3 24 53 7 57 18 75 29 48 4 -10 8 -10 15 1 8
11 14 12 24 4 11 -9 13 19 13 160 -1 95 -4 177 -8 184 -4 6 0 33 9 59 11 34
13 49 5 52 -14 5 -14 82 -1 117 8 20 7 27 -5 31 -8 4 -15 15 -15 25 0 16 8 19
58 19 50 0 64 -4 100 -32 l41 -31 -4 -76 c-2 -42 -9 -107 -16 -144 -10 -52
-10 -72 -2 -86 7 -10 9 -28 6 -39 -3 -11 1 -37 7 -58 11 -32 10 -38 -4 -46
-16 -9 -16 -11 -1 -28 16 -18 16 -20 -1 -37 -16 -17 -16 -18 -1 -21 9 -2 17
-11 17 -21 0 -41 28 -49 150 -47 63 2 118 4 121 5 11 2 19 44 10 55 -10 13 -7
191 3 224 5 16 3 24 -9 28 -14 6 -14 7 0 18 14 10 14 16 4 38 -8 18 -9 35 -2
55 6 15 8 64 6 108 -2 44 -4 85 -3 90 0 6 2 28 4 50 3 30 -1 45 -16 61 -12 13
-15 24 -9 28 5 4 14 -2 20 -11 21 -39 29 13 13 92 -7 32 -7 54 -1 61 6 8 4 37
-6 82 -15 64 -15 75 -1 117 19 56 25 390 8 407 -8 8 -7 21 3 45 13 30 12 35
-1 40 -12 5 -12 10 6 40 11 19 20 36 20 39 0 5 -21 4 -37 -3z m-13 -223 c0 -5
-4 -10 -10 -10 -5 0 -10 5 -10 10 0 6 5 10 10 10 6 0 10 -4 10 -10z m0 -101
c0 -11 -4 -17 -10 -14 -5 3 -10 13 -10 21 0 8 5 14 10 14 6 0 10 -9 10 -21z
m-240 -283 c0 -8 3 -21 6 -30 3 -9 2 -16 -3 -16 -13 0 -35 39 -28 50 9 15 25
12 25 -4z m-466 -81 c-4 -8 -8 -15 -10 -15 -2 0 -4 7 -4 15 0 8 4 15 10 15 5
0 7 -7 4 -15z"/>
<path d="M5787 1974 c-4 -4 -7 -29 -7 -55 0 -77 -2 -79 -85 -79 l-72 0 -7 60
c-4 33 -11 62 -15 64 -5 3 -14 -28 -20 -69 -11 -67 -15 -76 -37 -81 -14 -4
-51 -28 -82 -55 -31 -27 -63 -49 -70 -49 -18 0 -32 -42 -19 -58 7 -9 2 -21
-21 -45 -30 -31 -32 -38 -32 -103 0 -49 5 -77 17 -94 10 -14 16 -38 14 -56 -2
-22 3 -35 15 -42 12 -7 17 -22 16 -53 0 -43 27 -89 51 -89 5 0 36 -27 68 -60
60 -62 60 -63 77 -185 l8 -60 12 40 c7 22 12 54 12 72 0 43 17 51 25 12 4 -17
14 -33 23 -37 26 -10 62 -53 62 -74 0 -11 17 -36 37 -56 31 -31 38 -45 39 -80
1 -24 7 -49 13 -55 32 -32 -10 -116 -76 -148 -23 -11 -44 -26 -46 -32 -12 -34
-22 19 -28 144 -3 76 -9 142 -12 146 -13 12 -20 -8 -27 -75 -4 -37 -8 -61 -9
-54 -2 19 -73 82 -93 82 -49 0 -171 -24 -184 -37 -16 -17 -20 -118 -4 -128 6
-3 10 -21 10 -39 0 -25 5 -35 20 -39 15 -4 20 -14 20 -37 0 -26 6 -33 35 -46
19 -8 35 -20 35 -27 0 -7 14 -18 31 -24 24 -9 31 -9 35 2 9 22 73 16 85 -7 6
-11 14 -77 18 -147 8 -141 22 -187 33 -106 3 28 7 83 7 123 l1 72 38 0 c20 1
56 5 79 9 23 4 47 5 54 0 8 -4 24 2 42 17 16 13 32 24 36 24 4 0 15 14 25 32
18 29 20 30 27 12 4 -11 9 -104 11 -207 3 -172 8 -210 24 -194 3 3 8 102 9
219 3 177 2 195 -5 105 -5 -60 -11 -111 -14 -115 -17 -16 1 331 20 391 10 33
25 5 23 -44 -2 -27 0 -51 3 -54 7 -7 41 64 41 84 0 8 9 23 19 33 21 21 24 56
4 64 -10 4 -14 22 -14 60 1 30 -4 60 -11 67 -6 6 -11 26 -11 45 0 20 -10 46
-24 65 -14 18 -30 55 -36 82 -20 90 -21 92 -35 64 -7 -13 -16 -47 -20 -74 -7
-59 -21 -89 -29 -65 -2 8 -7 44 -10 80 -3 36 -11 83 -18 105 l-11 40 -11 -27
c-5 -16 -13 -28 -17 -28 -10 0 -119 136 -119 149 0 6 -7 14 -15 17 -8 4 -15
12 -15 18 0 7 -11 19 -24 26 -35 18 -38 31 -44 165 l-4 121 26 12 c34 15 55
15 88 0 l26 -12 1 -141 c1 -77 5 -167 11 -200 5 -33 10 -62 10 -64 0 -3 4 -1
10 5 5 5 14 64 19 130 8 114 21 164 40 164 5 0 12 -8 16 -17 7 -17 8 -16 15 2
5 11 9 37 9 57 1 20 4 44 7 52 11 29 44 -21 44 -66 0 -46 15 -55 69 -42 l36 9
-2 53 c-4 94 -7 107 -30 125 -13 10 -23 29 -23 41 0 29 -62 96 -89 96 -57 0
-100 48 -102 112 -1 40 -12 72 -22 62z"/>
<path d="M8657 1963 c-11 -10 -8 -63 3 -63 6 0 10 16 10 35 0 36 -2 40 -13 28z"/>
<path d="M6206 1904 c-3 -9 -6 -42 -6 -75 0 -50 -4 -64 -24 -84 -31 -31 -40
-69 -22 -98 15 -23 41 -154 52 -271 6 -61 9 -67 21 -51 8 11 13 45 13 86 0 79
9 131 21 123 5 -3 9 -18 9 -35 0 -16 5 -29 10 -29 6 0 10 10 10 23 0 41 31
142 45 150 17 9 22 127 6 127 -5 0 -21 20 -36 45 -26 45 -45 51 -45 14 0 -40
-18 -17 -25 31 -7 53 -19 70 -29 44z"/>
<path d="M9267 1873 c-15 -29 -40 -62 -57 -74 -27 -20 -37 -43 -45 -102 -6
-40 -37 -130 -53 -155 -19 -28 -22 -41 -28 -97 -7 -63 -14 -85 -24 -85 -6 0
-10 6 -10 14 0 8 -6 16 -12 18 -9 3 -13 25 -12 66 1 46 -3 62 -13 62 -10 0
-12 12 -8 48 3 26 8 55 11 65 3 9 1 17 -4 17 -6 0 -13 -8 -17 -17 -6 -14 -10
-10 -16 17 -4 19 -4 39 1 44 5 5 -1 17 -16 28 -13 11 -24 26 -24 33 0 22 -41
45 -81 45 -35 0 -38 2 -55 50 -20 56 -31 54 -36 -5 -3 -35 -6 -40 -30 -43 -22
-3 -32 3 -48 30 l-20 33 0 -40 c0 -37 26 -167 55 -275 l12 -45 7 30 c4 17 13
46 21 65 7 19 18 51 23 70 9 31 10 27 11 -42 1 -63 -2 -78 -14 -78 -22 0 -28
-42 -20 -133 5 -45 9 -212 10 -372 2 -324 14 -679 23 -670 3 3 5 184 4 403 0
349 1 390 12 337 l13 -60 2 63 c0 34 6 62 11 62 6 0 10 -1 10 -3 0 -17 23
-127 30 -142 18 -43 29 -86 24 -100 -3 -7 0 -23 6 -35 11 -20 13 -112 9 -270
-1 -19 1 -73 5 -120 3 -47 8 -166 10 -265 4 -189 18 -272 30 -185 4 25 10 92
14 150 l7 105 105 5 c113 5 134 12 125 40 -3 10 0 29 6 44 10 22 9 29 -6 47
-16 16 -17 24 -7 39 8 13 8 21 1 26 -7 4 -9 23 -5 48 8 61 10 177 2 208 -3 15
-2 30 4 33 6 4 7 11 4 17 -4 6 -8 26 -10 44 -2 25 1 34 12 34 20 0 29 27 15
44 -8 9 -8 16 -2 20 5 4 11 -2 14 -11 3 -14 8 -9 20 17 16 34 16 34 17 8 0
-35 10 -59 21 -52 5 3 9 19 9 35 0 18 -4 28 -10 24 -5 -3 -10 -2 -10 4 0 5 6
11 12 13 17 6 25 233 9 252 -9 10 -8 15 4 20 8 3 15 12 15 21 0 20 10 19 26
-2 12 -16 13 -12 14 29 0 25 -4 48 -8 50 -5 2 -5 35 1 73 5 39 9 88 8 110 -1
22 2 83 5 135 7 101 16 100 29 -4 8 -61 16 -74 34 -52 17 20 20 168 4 173 -7
3 -13 -2 -13 -11 0 -8 -4 -17 -9 -21 -5 -3 -15 29 -22 70 -6 41 -15 75 -19 75
-9 0 -40 -130 -40 -169 0 -14 -3 -37 -7 -49 -10 -38 -23 -5 -24 63 0 33 -4 83
-8 110 l-7 50 -27 -52z m-67 -133 c0 -5 -4 -10 -10 -10 -5 0 -10 5 -10 10 0 6
5 10 10 10 6 0 10 -4 10 -10z m-405 -377 c-10 -55 -17 -31 -8 28 4 33 9 45 11
30 2 -13 1 -39 -3 -58z m50 -73 c3 -5 1 -10 -4 -10 -6 0 -11 5 -11 10 0 6 2
10 4 10 3 0 8 -4 11 -10z"/>
<path d="M1574 1863 c-12 -57 -11 -56 -72 -50 -31 4 -68 9 -82 13 -18 4 -34
-1 -50 -14 -20 -16 -25 -31 -28 -86 -7 -107 -28 -77 -34 49 l-3 50 -51 2 c-32
2 -56 -2 -62 -10 -17 -21 -44 -130 -46 -184 0 -29 -4 -53 -7 -53 -9 0 -19 39
-19 75 -1 67 -30 103 -45 55 -3 -11 -10 -20 -15 -20 -15 0 -42 -61 -37 -82 3
-11 -2 -23 -13 -30 -10 -6 -16 -17 -13 -25 3 -7 -5 -33 -17 -57 -19 -40 -20
-49 -8 -88 7 -24 11 -51 10 -62 -1 -10 2 -24 6 -30 5 -6 7 -24 5 -41 -10 -80
-16 -111 -24 -120 -4 -6 -3 -29 3 -50 5 -22 10 -52 9 -67 0 -15 4 -30 9 -33 6
-4 6 -14 -1 -27 -6 -11 -9 -36 -6 -55 4 -19 1 -43 -5 -53 -7 -10 -8 -25 -3
-36 5 -11 7 -40 6 -66 -1 -25 3 -49 9 -53 8 -5 11 -38 9 -94 -1 -47 3 -97 9
-111 21 -52 141 -156 200 -174 31 -10 38 -28 51 -131 16 -116 31 -133 31 -33
0 41 3 102 6 136 l7 60 24 -29 c29 -34 45 -36 114 -9 32 12 58 16 67 11 19
-11 97 33 119 65 21 33 33 30 33 -8 l1 -33 14 25 14 25 1 -27 c0 -16 5 -28 10
-28 15 0 11 102 -5 130 -8 14 -14 34 -14 45 0 17 2 16 10 -5 8 -20 12 -22 19
-10 5 8 10 28 10 43 0 15 7 44 16 65 8 20 14 53 13 72 -1 19 2 43 6 54 5 11 3
21 -5 26 -10 6 -11 19 -3 59 7 35 7 66 0 97 -8 33 -7 58 1 90 7 25 9 51 5 57
-4 7 -8 89 -10 182 -1 94 -3 175 -4 180 -1 6 2 18 6 29 7 16 5 17 -16 11 -24
-8 -24 -7 -5 13 17 19 17 23 2 53 -9 18 -16 44 -16 59 0 15 -13 46 -29 71 -19
29 -31 63 -35 101 -8 78 -21 108 -46 108 -13 0 -22 -9 -26 -27z m-167 -289
c18 -20 33 -47 33 -60 0 -12 5 -26 10 -29 7 -4 7 -12 2 -18 -8 -11 -8 -231 0
-482 2 -62 -1 -117 -6 -127 -7 -11 -6 -24 2 -40 16 -30 9 -127 -11 -159 -8
-13 -18 -42 -22 -64 -9 -53 -21 -65 -60 -65 -29 0 -35 4 -43 33 -6 17 -13 57
-17 87 -13 119 -28 180 -43 180 -12 0 -11 5 5 23 17 18 20 34 19 83 -1 34 -7
69 -14 77 -11 13 -10 17 5 25 17 10 17 11 0 30 -14 15 -17 32 -14 72 2 29 8
55 13 59 5 3 9 37 9 74 0 38 4 71 8 74 5 3 2 12 -6 21 -19 22 -20 107 -1 123
8 6 14 27 14 45 0 29 6 36 38 53 20 11 39 20 41 21 3 0 20 -16 38 -36z m318
-414 c3 -5 1 -10 -4 -10 -6 0 -11 5 -11 10 0 6 2 10 4 10 3 0 8 -4 11 -10z"/>
<path d="M4183 1853 c-9 -38 -9 -38 -58 -38 -28 1 -66 4 -85 9 -29 6 -41 3
-60 -12 -20 -16 -25 -31 -28 -86 -2 -36 -8 -66 -12 -66 -11 0 -20 53 -20 115
l0 53 -57 -1 -58 -2 -24 -70 c-13 -38 -24 -94 -25 -122 -1 -70 -13 -67 -21 5
-4 31 -9 65 -11 75 -6 19 -34 24 -34 5 0 -7 -12 -24 -26 -39 -15 -16 -27 -41
-29 -60 -1 -18 -10 -38 -18 -44 -13 -9 -14 -14 -4 -24 9 -9 9 -14 0 -19 -6 -4
-15 -20 -18 -35 -4 -15 -11 -27 -15 -27 -11 0 0 -71 13 -87 5 -7 6 -24 3 -37
-3 -14 -2 -27 3 -30 5 -3 7 -21 5 -38 -12 -101 -17 -128 -24 -128 -9 0 0 -62
12 -77 6 -7 7 -24 4 -37 -3 -14 -2 -27 3 -31 6 -3 6 -17 -1 -35 -5 -17 -7 -42
-4 -56 4 -15 2 -32 -5 -40 -8 -10 -9 -21 -2 -37 5 -12 9 -43 7 -69 -2 -26 1
-50 6 -53 15 -9 23 -130 11 -154 -10 -18 -7 -28 20 -69 18 -26 43 -57 55 -68
33 -31 113 -84 128 -84 28 0 45 -37 56 -124 14 -110 29 -145 30 -66 0 30 3 93
7 138 l6 84 25 -32 c23 -29 29 -31 65 -26 21 4 53 14 70 23 22 11 35 13 47 5
13 -8 28 -3 63 19 26 16 52 38 59 49 18 28 26 25 30 -12 l4 -33 11 25 c11 24
12 24 12 3 1 -12 6 -25 11 -28 16 -10 12 96 -5 129 -8 15 -15 36 -14 45 0 11
3 8 10 -7 13 -33 29 -18 29 26 0 20 7 50 15 66 8 15 15 49 15 75 0 26 6 53 12
59 10 10 10 14 1 20 -8 5 -13 36 -13 82 -1 41 -2 93 -2 115 0 22 0 56 2 75 1
19 0 126 -1 238 -3 198 -3 202 -24 196 -19 -6 -19 -6 -3 12 18 21 18 32 0 77
-7 16 -12 36 -12 46 0 10 -12 35 -26 57 -17 24 -29 61 -35 102 -15 102 -18
112 -44 112 -18 0 -25 -8 -32 -37z m-162 -283 l38 -39 4 -416 c3 -336 1 -422
-10 -443 -8 -14 -18 -46 -24 -71 -5 -25 -15 -51 -21 -58 -14 -17 -62 -17 -77
0 -8 11 -36 165 -46 260 -1 10 -8 23 -15 27 -12 7 -10 14 9 34 20 21 22 28 11
41 -10 12 -10 21 -1 41 9 21 8 31 -6 55 -15 26 -16 31 -3 39 12 8 12 11 -2 27
-17 19 -19 119 -2 132 5 3 9 35 9 71 0 36 4 68 9 71 4 4 2 17 -5 30 -18 33
-20 106 -3 120 8 6 14 27 14 45 0 29 6 36 38 53 20 11 39 20 41 21 2 0 21 -18
42 -40z m314 -410 c3 -5 1 -10 -4 -10 -6 0 -11 5 -11 10 0 6 2 10 4 10 3 0 8
-4 11 -10z"/>
<path d="M7590 1864 c-6 -14 -10 -32 -10 -40 0 -18 -66 -19 -121 -2 -72 21
-109 -21 -109 -124 0 -21 -4 -38 -10 -38 -6 0 -10 31 -10 73 0 39 -4 77 -8 83
-4 6 -32 11 -62 10 l-54 -1 -23 -70 c-12 -38 -22 -94 -22 -122 -1 -76 -16 -65
-27 19 -7 57 -13 74 -26 76 -10 2 -18 -3 -18 -11 0 -7 -11 -24 -25 -37 -17
-16 -25 -34 -25 -56 0 -17 -7 -37 -15 -44 -9 -7 -13 -21 -10 -31 4 -11 3 -19
-2 -19 -15 0 -36 -89 -28 -118 3 -15 9 -44 12 -64 3 -21 9 -38 15 -38 5 0 6
-6 2 -12 -5 -7 -10 -40 -12 -72 -1 -33 -7 -65 -11 -70 -12 -15 -11 -68 1 -83
14 -17 12 -177 -2 -204 -7 -12 -8 -25 -3 -32 5 -7 10 -37 12 -67 1 -30 6 -57
10 -60 13 -8 13 -140 1 -156 -24 -28 97 -161 187 -205 57 -28 69 -49 77 -136
3 -39 10 -81 14 -94 7 -19 10 -13 15 32 4 30 7 89 7 132 0 42 4 77 9 77 5 0
16 -12 26 -26 15 -24 21 -26 58 -20 22 4 56 14 74 23 25 12 36 13 47 4 11 -9
24 -5 61 20 25 17 52 40 58 50 17 27 27 23 27 -11 0 -16 5 -30 10 -30 6 0 10
10 10 22 0 25 15 14 23 -17 3 -11 5 7 6 41 1 39 -4 67 -14 80 -17 22 -20 54
-5 54 6 0 10 -9 10 -20 0 -11 5 -20 10 -20 6 0 10 16 10 36 0 19 10 57 21 85
13 29 19 60 16 76 -3 15 -1 36 5 47 7 12 7 21 0 25 -9 5 -16 134 -11 221 1 19
1 55 0 80 -1 25 -2 56 -3 70 0 14 0 66 2 115 2 50 0 114 -5 143 -5 38 -3 57 7
69 11 15 10 16 -9 11 -27 -7 -31 7 -6 20 15 9 15 12 1 34 -8 13 -19 42 -23 66
-4 23 -17 57 -30 76 -13 19 -27 56 -30 83 -13 92 -24 123 -46 123 -12 0 -23
-10 -29 -26z m-178 -279 c6 -13 19 -27 30 -30 12 -5 18 -16 18 -38 3 -158 8
-445 10 -457 0 -8 -2 -38 -6 -66 -4 -31 -2 -59 5 -71 7 -15 7 -29 -1 -51 -10
-25 -9 -39 1 -67 7 -19 9 -41 4 -47 -4 -7 -6 -23 -5 -35 2 -12 -2 -32 -9 -45
-7 -13 -20 -50 -29 -83 -15 -58 -17 -60 -51 -63 -21 -2 -40 2 -46 10 -6 7 -16
56 -23 108 -7 52 -14 104 -17 115 -3 11 -6 28 -7 38 -1 10 -9 23 -17 27 -11 8
-10 13 9 30 25 24 25 25 12 50 -7 13 -6 27 2 44 9 22 8 29 -7 46 -17 19 -17
21 0 40 16 18 16 20 1 26 -12 5 -16 20 -16 63 0 32 3 61 8 65 4 4 8 17 9 29 1
12 3 37 5 55 3 18 1 35 -4 38 -4 3 -2 13 4 24 10 15 9 23 -3 37 -19 23 -17 79
5 121 9 18 15 41 11 51 -4 12 5 23 32 39 49 28 61 27 75 -3z m328 -425 c0 -5
-4 -10 -10 -10 -5 0 -10 5 -10 10 0 6 5 10 10 10 6 0 10 -4 10 -10z"/>
<path d="M9426 1563 c10 -40 14 -41 14 -5 0 18 -5 32 -10 32 -6 0 -8 -11 -4
-27z"/>
<path d="M9362 1235 c0 -16 2 -22 5 -12 2 9 2 23 0 30 -3 6 -5 -1 -5 -18z"/>
<path d="M9372 1170 c0 -14 2 -19 5 -12 2 6 2 18 0 25 -3 6 -5 1 -5 -13z"/>
<path d="M8816 969 c-3 -17 -5 -48 -5 -68 1 -24 4 -15 10 29 9 68 6 92 -5 39z"/>
<path d="M2192 780 c0 -14 2 -19 5 -12 2 6 2 18 0 25 -3 6 -5 1 -5 -13z"/>
<path d="M3062 780 c0 -14 2 -19 5 -12 2 6 2 18 0 25 -3 6 -5 1 -5 -13z"/>
<path d="M4802 780 c0 -14 2 -19 5 -12 2 6 2 18 0 25 -3 6 -5 1 -5 -13z"/>
<path d="M8202 780 c0 -14 2 -19 5 -12 2 6 2 18 0 25 -3 6 -5 1 -5 -13z"/>
</g>
</svg>
